<svg width="21" height="21" viewBox="0 0 21 21" fill="none" xmlns="http://www.w3.org/2000/svg">
<path d="M4.96387 0.5C5.03988 0.5 5.21475 0.498194 5.40234 0.568359L5.40332 0.56543C5.41106 0.56801 5.41821 0.573372 5.42578 0.576172C5.43105 0.578311 5.4371 0.57879 5.44238 0.581055L5.44141 0.583008C5.61834 0.652954 5.7495 0.777095 5.83203 0.871094C5.92914 0.981697 6.01371 1.10945 6.08398 1.22656C6.21826 1.45036 6.33655 1.70236 6.39648 1.82324C6.82858 2.59321 7.23187 3.34702 7.66699 4.08594L7.83594 4.33398C7.90234 4.42765 7.98051 4.53834 8.05273 4.65332C8.18909 4.87043 8.35738 5.1834 8.35742 5.54004C8.35742 5.76415 8.27537 5.96186 8.18359 6.11719C8.09051 6.27468 7.96737 6.42215 7.83984 6.55566C7.58664 6.82072 7.25793 7.0889 6.95996 7.33008C6.64825 7.58237 6.36873 7.80604 6.16406 8.00977C6.06289 8.11051 5.99653 8.19088 5.95801 8.25098C5.94588 8.26992 5.93863 8.28342 5.93457 8.29199C5.94127 8.34927 5.97494 8.4588 6.06543 8.62988C6.11715 8.72765 6.16882 8.81314 6.22168 8.89941L6.3877 9.17188L6.39258 9.18164L6.6416 9.61426C7.82114 11.5966 9.25995 13.0363 11.2422 14.2158L11.6758 14.4648L11.6846 14.4697C11.8843 14.5862 12.0321 14.6876 12.2275 14.791C12.3977 14.881 12.5069 14.9139 12.5645 14.9209C12.573 14.9168 12.5875 14.9115 12.6064 14.8994C12.6666 14.8608 12.7468 14.7937 12.8477 14.6924C13.0513 14.4877 13.2751 14.2091 13.5273 13.8975C13.7685 13.5995 14.0367 13.2708 14.3018 13.0176C14.4353 12.89 14.5827 12.7669 14.7402 12.6738C14.8956 12.5821 15.0933 12.5 15.3174 12.5L15.4482 12.5078C15.7503 12.5417 16.014 12.6853 16.2041 12.8047C16.3191 12.8769 16.4298 12.9551 16.5234 13.0215C16.6204 13.0902 16.6972 13.1445 16.7666 13.1875C17.5033 13.6215 18.2549 14.0236 19.0225 14.4541C19.1383 14.512 19.3998 14.6338 19.6309 14.7725C19.748 14.8428 19.8757 14.9283 19.9863 15.0254C20.0802 15.1079 20.2045 15.2386 20.2744 15.415H20.2764C20.2789 15.421 20.2798 15.4276 20.2822 15.4336C20.2847 15.4403 20.2887 15.4463 20.291 15.4531H20.2891C20.3597 15.641 20.3574 15.8162 20.3574 15.8926C20.3574 16.1885 20.2944 16.5858 20.2129 16.9482C20.1311 17.312 20.0184 17.6948 19.8975 17.9609L19.8965 17.96C19.7083 18.3931 19.3809 18.7243 19.0518 18.9795C18.7196 19.237 18.3497 19.4453 18.0508 19.6113L18.0469 19.6133C17.202 20.0715 16.3164 20.3573 15.3174 20.3574C13.9596 20.3574 12.7241 19.7983 11.6387 19.4023V19.4033C10.7961 19.0994 9.9729 18.7241 9.20117 18.2471C6.8583 16.8 4.05741 13.9981 2.61035 11.6553C2.13358 10.884 1.75787 10.0618 1.4541 9.21973C1.05811 8.13406 0.5 6.89823 0.5 5.54004C0.500026 4.54088 0.784881 3.65551 1.24316 2.81055L1.24609 2.80664C1.41209 2.50785 1.61957 2.13773 1.87695 1.80566C2.13186 1.47688 2.46309 1.14924 2.89551 0.960938C3.16166 0.839958 3.54521 0.726381 3.90918 0.644531C4.27142 0.56309 4.66802 0.500059 4.96387 0.5Z" stroke="#FFAC30"/>
</svg>
